<svg xmlns="http://www.w3.org/2000/svg" width="1024" height="221.9" viewBox="0 0 1024 221.9"><title>Artboard 1</title><path d="M110.9 221.9a110.9 110.9 0 1 1 111-111 111.1 111.1 0 0 1-111 111zm0-209.8a98.8 98.8 0 1 0 98.8 98.8 98.9 98.9 0 0 0-98.8-98.8zM111 208.9l-1.8-.8a152.8 152.8 0 0 1-32.3-20c-21.6-17.5-33-37.7-33-58.6v-89.6h134v91.2c0 48-62.5 75.9-65.1 77zm-58.1-159.9v80.5c0 39.6 48 64.6 58 69.4 10-4.8 57.9-30 57.9-67.8v-82.1zM82 92.7l-1.5-.9c-.3-.2-7-4.1-11.5-7.1s-5.7-5.2-5.9-8.1v-25.6h38.1v25.5s-.1 4.5-5.6 8.1-11.8 7-12.1 7.2zm-12.9-35.6v19.1s1.3 2.2 3.2 3.5 7.5 4.7 9.7 6c2.4-1.3 7-4 10.1-6 1.1-.7 2.9-2.1 2.9-3.3v-19.3zM141.4 92.6l-1.5-.9c-.3-.2-7-4.1-11.5-7.1s-5.7-5.2-5.9-8.1c0-.5-.1-8.1 0-22.6v-3h38.1v25.6s-.2 4.5-5.6 8.1-11.8 7-12.1 7.2zm-12.9-35.6v19.1s1.3 2.2 3.2 3.5 7.5 4.7 9.7 6c2.4-1.3 7-4 10.1-6 1.1-.7 2.9-2.1 2.9-3.3v-19.3zM45.7 94.5h131.1v7.87h-131.1zM110.8 173.9a5.5 5.5 0 0 1-4.4-2.5 2 2 0 0 0-2-1c-3.5 0-6 .2-9 .5s-6.2.6-10.9.7-8.3-.1-8.4-.1l-3.4-.2v-61h13.9c2.2 0 4.8-.3 7.8-.6l5.5-.6a29.3 29.3 0 0 1 8.2.4 11.9 11.9 0 0 1 2.9 1 11.4 11.4 0 0 1 2.8-1 29.8 29.8 0 0 1 8.3-.4l5.4.6c3 .3 5.6.6 7.8.6h13.9v61l-3.4.2c-.1 0-3.8.2-8.4.1s-8-.4-10.9-.7-5.5-.5-9-.5a2.5 2.5 0 0 0-2.3 1.1 5.7 5.7 0 0 1-4.4 2.4zm-6.4-10.7a9 9 0 0 1 6.5 2.4 9 9 0 0 1 6.3-2.4 98.6 98.6 0 0 1 9.9.5c2.9.3 6 .5 10.4.6h4.4v-47h-6.9c-2.5-.1-5.2-.3-8.4-.7l-5.4-.5a22.9 22.9 0 0 0-6.1.2 2.7 2.7 0 0 0-1.1.5 1.5 1.5 0 0 0 .3-.9l-3.5-.5-3.5.5a1.5 1.5 0 0 0 .3.9 2.9 2.9 0 0 0-1.2-.5 22.7 22.7 0 0 0-5.9-.2l-5.5.6c-3.2.3-5.9.6-8.4.7h-6.7v47h4.5c4.4-.1 7.5-.4 10.4-.6s5.8-.6 9.6-.6zM66.1 62.9h31.8v5.34h-31.8zM107.8 96.2h7.3v108.13h-7.3zM155.1 75l-14.2-9.4-12.9 9.4-3.1-4.4 15.9-11.5 17.2 11.5-2.9 4.4zM84.8 124.1h16v5.34h-16zM84.8 136.8h16v5.34h-16zM84.8 149.4h16v5.34h-16zM119.5 124.1h16v5.34h-16zM119.5 136.8h16v5.34h-16zM119.5 149.4h16v5.34h-16zM283.7 86.3a21.9 21.9 0 0 1 8.3-5.2 36.6 36.6 0 0 1 11.4-1.7c6 0 10.6.8 13.7 2.3a8.4 8.4 0 0 1 5.1 6.9v5.6h2.9a73 73 0 0 1 1-9.3 30.7 30.7 0 0 1 1.6-5.1l-6.5-1.6a77.1 77.1 0 0 0-8.9-1.9 59.6 59.6 0 0 0-8-.5q-18.2 0-28.7 9.9t-10.5 25a36.7 36.7 0 0 0 1.6 11 33.4 33.4 0 0 0 4.5 9.2 32.8 32.8 0 0 0 7.7 7.7 35.2 35.2 0 0 0 11 5.3 47.9 47.9 0 0 0 13.6 1.9 50.1 50.1 0 0 0 11.5-1.3 49.4 49.4 0 0 0 10.8-4.1l1.8-4.4-.8-1a28.3 28.3 0 0 1-7.5 3.9 39 39 0 0 1-12 1.8q-14.4 0-23.1-8.7t-8.8-23.1a35.9 35.9 0 0 1 2.3-13.6 27 27 0 0 1 6-9zm69.6 12.3q-10.6 0-17.3 6.7t-6.7 17.3a28 28 0 0 0 2.2 11 22.2 22.2 0 0 0 3.6 5.7 18.5 18.5 0 0 0 6.2 4.6 21.2 21.2 0 0 0 9.3 1.8 26.3 26.3 0 0 0 12.9-3.2 22.8 22.8 0 0 0 9.1-9 25.2 25.2 0 0 0 3.2-12.6q0-9.9-6.3-16.1t-16.2-6.2zm9.6 39.4a11.6 11.6 0 0 1-9.2 4.3 13 13 0 0 1-8-2.8q-3.7-2.8-5.6-8.7a38.2 38.2 0 0 1-1.9-11.8q0-8.9 3.6-13.1a11.8 11.8 0 0 1 9.4-4.2 13.3 13.3 0 0 1 7.5 2.2q3.4 2.2 5.6 7.7a34.5 34.5 0 0 1 2.2 12.9q.1 9.2-3.6 13.6zm45.8-39.2a10.3 10.3 0 0 0-3.8.7 11.3 11.3 0 0 0-3.3 2 24.4 24.4 0 0 0-2.6 3.1c-1.2 1.6-2.5 3.2-3.9 4.9 0-4 .1-7 .2-9v-.8a1.1 1.1 0 0 0-.2-.7.6.6 0 0 0-.5-.2l-1.3.5q-4.3 2.1-13.8 3.4v2.7a34.1 34.1 0 0 1 6.1.2 1.9 1.9 0 0 1 1.1.8 10.9 10.9 0 0 1 .4 3.3q.2 4.4.2 8.1v5.6q0 .6-.2 13.2a10.3 10.3 0 0 1-.6 3.4 2.3 2.3 0 0 1-.6.9 2.8 2.8 0 0 1-1.2.4l-5.8.2v2.7c3.8-.2 7.7-.3 11.7-.3l14.2.3v-2.7a49 49 0 0 1-7.7-.9 2.2 2.2 0 0 1-1-.6 2.7 2.7 0 0 1-.5-1.2 21.5 21.5 0 0 1-.2-3.7c-.2-5.5-.2-9.3-.2-11.4v-4.9q0-6 2.5-9a7.9 7.9 0 0 1 6.2-3 6.1 6.1 0 0 1 3.6 1 8.6 8.6 0 0 1 2.6 3.3h2.1q.1-4.8.8-11.1l-.3-.7a9.7 9.7 0 0 0-4-.4zm56.2 42a3.9 3.9 0 0 1-.7-2c-.2-1.5-.2-4.3-.2-8.4v-8.4c0-6.5-.1-10.4-.3-11.9a13.7 13.7 0 0 0-2.3-6 12.6 12.6 0 0 0-5.1-3.9 17.6 17.6 0 0 0-7.3-1.6 21.3 21.3 0 0 0-7.3 1.4l-8.8 7.5c.1-3.7.1-6.1.2-7.2v-.8a1.2 1.2 0 0 0-.2-.7.6.6 0 0 0-.5-.2l-1.3.5q-4.4 2.1-13.8 3.4v2.7a33.9 33.9 0 0 1 6.1.2 1.9 1.9 0 0 1 1 .8 10.7 10.7 0 0 1 .4 3.3q.2 4.4.2 8.1v5.6q-.2 13-.2 13.6a8.4 8.4 0 0 1-.7 3.4 2.1 2.1 0 0 1-.8.8 3.3 3.3 0 0 1-1.5.4h-4.5v2.7l12.9-.3q4.7 0 10.4.3v-2.7h-5.2a2.7 2.7 0 0 1-1.2-.5 2 2 0 0 1-.6-.7 10.1 10.1 0 0 1-.6-3.5c0-.7-.1-5.1-.2-13.3v-5.7q0-5.2 1.3-7.4a11 11 0 0 1 4.2-3.9 12.7 12.7 0 0 1 6.5-1.7 11.9 11.9 0 0 1 6.9 1.9 8.5 8.5 0 0 1 3.6 5.1 51.5 51.5 0 0 1 .6 9.7v8q0 3.1-.5 14.8l8.7-.3 7.6.3v-2.7h-5.1a2.4 2.4 0 0 1-1.7-.6zm40.5-39.8a19.2 19.2 0 0 0-9.6-2.4 20.8 20.8 0 0 0-8.1 1.6 30 30 0 0 0-5.7 3.1 25.3 25.3 0 0 0-4.3 3.5 18.5 18.5 0 0 0-3.4 6.4 30 30 0 0 0-1.3 9.8 24.9 24.9 0 0 0 2.8 12.1 18.4 18.4 0 0 0 7.9 7.8 24.2 24.2 0 0 0 11.3 2.6 25.2 25.2 0 0 0 6-.7 28.6 28.6 0 0 0 5.1-1.7 44.5 44.5 0 0 0 4.8-2.7l1.5-3.4-.8-.8a38.3 38.3 0 0 1-7.1 3.4 18.6 18.6 0 0 1-5.8.9 18.1 18.1 0 0 1-8.2-2 14.2 14.2 0 0 1-6.2-6.2q-2.3-4.2-2.3-10.9h15.2c3.4 0 6.8-.1 10.2-.4a50.5 50.5 0 0 0 6.1-.9 24.7 24.7 0 0 0 .2-3.2 21.6 21.6 0 0 0-2-9.4 14.6 14.6 0 0 0-6.3-6.5zm-.5 16.9c-1.3.2-4.1.2-8.3.2l-9.7-.2-5-.2c0-5.5 1.1-9.5 3.3-12.1a10.9 10.9 0 0 1 8.6-3.8 10.2 10.2 0 0 1 8.1 3.5c2 2.3 3 6 3 10.9.1.4 0 1 0 1.7zm28.4 23.1a2.1 2.1 0 0 1-.6-.7 9.1 9.1 0 0 1-.6-3.5c0-.7-.1-5.1-.2-13.3v-31.8q0-6 .2-14.4v-1.6a7.4 7.4 0 0 0 .1-.9.9.9 0 0 0-.2-.6l-.5-.2-.9.3q-4.1 2-14.7 3.4v2.7c3.9 0 6.1.1 6.6.3a1.3 1.3 0 0 1 .8.7c.2.4.4 2.6.5 6.3q.2 8.4.2 16.3v19.6q-.2 13-.2 13.6a8.2 8.2 0 0 1-.6 3.4 2.2 2.2 0 0 1-.8.8 3.5 3.5 0 0 1-1.6.4h-4.5v2.7l12.1-.3q4.8 0 11.2.3v-2.7h-5.2zm27.2 0a2.1 2.1 0 0 1-.6-.7 9.1 9.1 0 0 1-.6-3.5q0-1-.2-13.3v-31.8q.1-6 .3-14.4v-1.6a9.4 9.4 0 0 0 .1-.9.9.9 0 0 0-.2-.6l-.5-.2-.9.3q-4.1 2-14.7 3.4v2.7c3.9 0 6.1.1 6.6.3a1.4 1.4 0 0 1 .8.7c.2.4.4 2.6.5 6.3q.2 8.4.2 16.3v19.6q-.2 13-.2 13.6a8.2 8.2 0 0 1-.6 3.4 2.3 2.3 0 0 1-.8.8 3.5 3.5 0 0 1-1.6.4h-4.5v2.7l12.1-.3c3.2 0 7 .1 11.2.3v-2.7h-5.3zm99.2-63.9l-11.7.4-11.4-.4v3.1a33.4 33.4 0 0 1 6.8.5 3.2 3.2 0 0 1 1.8 1.2c.4.6.6 2.3.6 5.3s.2 8.3.2 12.5v14.5a93.9 93.9 0 0 1-.5 10.2 22 22 0 0 1-1.5 6.3 12.2 12.2 0 0 1-3.1 4.2 16.4 16.4 0 0 1-6.2 3.2 31.1 31.1 0 0 1-9.4 1.3 32 32 0 0 1-8.2-1 17 17 0 0 1-5.8-2.6 12.2 12.2 0 0 1-4.1-5.3q-1.3-3.2-1.3-13.4v-17.2q.2-12.5.2-13.4.1-3.6.7-4.6a2.9 2.9 0 0 1 1.6-1.1 33.4 33.4 0 0 1 6.8-.5v-3.1c-4.4.2-8.9.4-13.4.4s-9.2-.1-14.4-.4v3.1a33 33 0 0 1 6.8.5 3.2 3.2 0 0 1 1.7 1.2c.4.6.6 2.3.7 5.3s.2 8.3.2 12.6v20.9q0 9.1 1.3 13a15.8 15.8 0 0 0 3.8 5.7 19.9 19.9 0 0 0 8.1 4.5 45.9 45.9 0 0 0 24 .3 23.5 23.5 0 0 0 8.4-4.1 18.5 18.5 0 0 0 6-8.2q1.6-4.6 1.6-16.3v-15.8q.1-12.5.1-13.4c.1-2.4.3-4 .7-4.6a3.1 3.1 0 0 1 1.7-1.1 33 33 0 0 1 6.8-.5v-3.1zm47.3 63.8a3.9 3.9 0 0 1-.8-2q-.2-2.2-.2-8.4v-8.4a117.3 117.3 0 0 0-.3-11.9 13.5 13.5 0 0 0-2.3-6 12.5 12.5 0 0 0-5.1-3.9 17.4 17.4 0 0 0-7.3-1.6 21.3 21.3 0 0 0-7.3 1.4l-8.8 7.5c.1-3.7.1-6.1.2-7.2v-.8a1.3 1.3 0 0 0-.2-.7l-.5-.2-1.3.5q-4.4 2.1-13.8 3.4v2.7a33.7 33.7 0 0 1 6 .2 1.9 1.9 0 0 1 1 .8 11 11 0 0 1 .4 3.3c.2 2.9.2 5.6.2 8.1v5.6q-.2 13-.2 13.6a8.8 8.8 0 0 1-.7 3.4 2.2 2.2 0 0 1-.8.8 3.3 3.3 0 0 1-1.5.4h-4.5v2.7l12.9-.3q4.7 0 10.4.3v-2.7h-5.2a2.8 2.8 0 0 1-1.2-.5 1.9 1.9 0 0 1-.6-.7 10.2 10.2 0 0 1-.6-3.5c0-.7-.1-5.1-.2-13.3v-5.7q0-5.2 1.2-7.4a11.1 11.1 0 0 1 4.2-3.9 12.7 12.7 0 0 1 6.5-1.7 11.8 11.8 0 0 1 6.8 1.9 8.6 8.6 0 0 1 3.6 5.1 51.5 51.5 0 0 1 .6 9.7v8c0 2.1-.2 7-.5 14.8l8.7-.3 7.7.3v-2.7h-5.1a2.4 2.4 0 0 1-1.4-.7zm21.8-52.5a5.3 5.3 0 0 0 5.3-5.3 5.2 5.2 0 0 0-1.5-3.8 5.1 5.1 0 0 0-3.7-1.6 5.3 5.3 0 0 0-5.3 5.3 5.3 5.3 0 0 0 5.3 5.3zm6 52.7a2.3 2.3 0 0 1-.6-.7 9.5 9.5 0 0 1-.5-3.4c0-.7-.1-5.1-.3-13.3v-8.7q0-5.3.2-15.4l-1-.7a48.4 48.4 0 0 1-15.2 4v2.7c3.7 0 5.8.1 6.3.3a2 2 0 0 1 1 1.1c.3.9.5 3.7.5 8.3v8.3c-.2 8.6-.2 13.1-.2 13.5a8.7 8.7 0 0 1-.7 3.3 2.2 2.2 0 0 1-.8.8 3.6 3.6 0 0 1-1.5.3h-4.5v2.7l12.3-.4 11.4.4v-2.7h-5.2zm56.5-41.1l-9.1.4-9-.4v2.7c3.3.1 5.3.3 6.1.8a1.2 1.2 0 0 1 .6 1.1 6.7 6.7 0 0 1-.2 1.4 73.1 73.1 0 0 1-3 8.7l-4.3 10.7-4.7 10.8q-.9-1.9-3.2-7.6l-1.4-3.2-5.8-14.4q-1.9-4.7-1.9-6.1a1.6 1.6 0 0 1 .9-1.4q.9-.5 6-.7v-2.9l-10.9.4-11.4-.4v2.7l3.5.3a2.9 2.9 0 0 1 1.5.9 11.3 11.3 0 0 1 1.6 2.8l9.7 22.6 3.9 9.1 2.6 6.5h4.9q7-16.7 8.2-19.3l4.5-9.7c3-6.1 4.7-9.5 5.1-10.3a5.6 5.6 0 0 1 1.9-2.3 10.2 10.2 0 0 1 3.9-.7zm32.1 1.1a19.1 19.1 0 0 0-9.6-2.4 20.8 20.8 0 0 0-8.1 1.6 30.4 30.4 0 0 0-5.7 3.1 24.3 24.3 0 0 0-4.2 3.5 18.4 18.4 0 0 0-3.4 6.4 30.3 30.3 0 0 0-1.4 9.7 24.9 24.9 0 0 0 2.8 12.1 18.4 18.4 0 0 0 7.8 7.8 24.3 24.3 0 0 0 11.3 2.6 25.1 25.1 0 0 0 6-.7 29.3 29.3 0 0 0 5.1-1.7 44.2 44.2 0 0 0 4.8-2.7l1.5-3.4-.8-.8a37.8 37.8 0 0 1-7.1 3.4 18.6 18.6 0 0 1-5.7.9 18.2 18.2 0 0 1-8.2-2 14.2 14.2 0 0 1-6.2-6.2q-2.3-4.2-2.3-10.9h15.2q5.1 0 10.2-.4a50.6 50.6 0 0 0 6.1-.9 26.4 26.4 0 0 0 .2-3.2 21.6 21.6 0 0 0-2-9.4 14.7 14.7 0 0 0-6.3-6.5zm-.5 16.9q-2 .2-8.3.2l-9.7-.2-5-.2c0-5.5 1.1-9.5 3.3-12.1a10.8 10.8 0 0 1 8.6-3.8 10.2 10.2 0 0 1 8.1 3.5q3 3.5 3 10.9c.1.3.1.9 0 1.6zm43.1-19.1a10.4 10.4 0 0 0-3.8.7 11.4 11.4 0 0 0-3.3 2 23.7 23.7 0 0 0-2.6 3.1c-1.2 1.6-2.5 3.2-3.9 4.9 0-4 .1-7 .2-9a5.7 5.7 0 0 0 0-.8 1.2 1.2 0 0 0-.2-.7.6.6 0 0 0-.5-.2l-1.3.5q-4.4 2.1-13.8 3.4v2.7a34 34 0 0 1 6.1.2 2 2 0 0 1 1.1.8 10.8 10.8 0 0 1 .4 3.3q.3 4.4.2 8.1v5.6q0 .6-.2 13.2a10.2 10.2 0 0 1-.6 3.4 2.2 2.2 0 0 1-.6.9 2.8 2.8 0 0 1-1.2.4l-5.8.2v2.7c3.8-.2 7.7-.3 11.7-.3l14.2.3v-2.7a49.2 49.2 0 0 1-7.7-.9 2.2 2.2 0 0 1-1-.6 2.7 2.7 0 0 1-.5-1.2 21.9 21.9 0 0 1-.2-3.7c-.2-5.5-.2-9.3-.2-11.4v-4.9c0-4 .8-7 2.6-9a7.9 7.9 0 0 1 6.2-3 6.1 6.1 0 0 1 3.6 1 8.4 8.4 0 0 1 2.5 3.3h2.1c.1-3.2.3-6.9.8-11.1l-.3-.7a9.7 9.7 0 0 0-3.9-.5zm38.6 22.1a49.5 49.5 0 0 0-8.2-2.6l-7.8-1.9a12.9 12.9 0 0 1-3.5-1.5 6.2 6.2 0 0 1-2-2.1 6.6 6.6 0 0 1-.7-3.2 7.8 7.8 0 0 1 2.5-5.8 9.2 9.2 0 0 1 6.7-2.5 14.2 14.2 0 0 1 4.9.8 13 13 0 0 1 3.3 1.7 7.3 7.3 0 0 1 1.8 1.8 7.9 7.9 0 0 1 .8 1.9 28.3 28.3 0 0 1 .5 4.5h2.7q.1-5.4.5-10.7a27.4 27.4 0 0 0-6.4-2 34.7 34.7 0 0 0-6.9-.8 21.4 21.4 0 0 0-9.2 2 14.1 14.1 0 0 0-6.2 5.1 12.7 12.7 0 0 0-2 6.9 12.1 12.1 0 0 0 .9 4.7 10.2 10.2 0 0 0 2.5 3.6 12.8 12.8 0 0 0 4.2 2.4q1.8.6 7.8 2a48.1 48.1 0 0 1 7.8 2.2 6.6 6.6 0 0 1 2.8 2.4 6.3 6.3 0 0 1 1 3.5 8.5 8.5 0 0 1-3.1 7 12.1 12.1 0 0 1-8 2.6l-4.4-.2a10 10 0 0 1-2.9-.8 9.1 9.1 0 0 1-2.6-1.6 6.5 6.5 0 0 1-1.8-2.6 15.3 15.3 0 0 1-.8-3.1 34.7 34.7 0 0 1-.3-4.4h-2.7c-.1 4.1-.2 6.8-.2 8.1a31.9 31.9 0 0 1-.6 4 4.7 4.7 0 0 0-.1.8.5.5 0 0 0 .2.5 17.3 17.3 0 0 0 4 1 65.2 65.2 0 0 0 10.9 1.2q8.8 0 14.1-4.7a14.5 14.5 0 0 0 5.3-11.1 10.6 10.6 0 0 0-1.4-5.5 8.4 8.4 0 0 0-3.4-3.6zm21.7-32.6a5.3 5.3 0 0 0 5.3-5.3 5.2 5.2 0 0 0-1.5-3.8 5 5 0 0 0-3.7-1.6 5.3 5.3 0 0 0-3.8 9 5.1 5.1 0 0 0 3.8 1.7zm6 52.7a2.3 2.3 0 0 1-.6-.7 9.6 9.6 0 0 1-.5-3.4q-.1-1-.3-13.3v-8.7q0-5.3.2-15.4l-1-.7a48.4 48.4 0 0 1-15.2 4v2.7q5.5 0 6.3.3a1.9 1.9 0 0 1 1 1.1c.3.9.5 3.7.5 8.3v8.3c-.2 8.6-.2 13.1-.2 13.5a9.1 9.1 0 0 1-.7 3.3 2.4 2.4 0 0 1-.8.8 3.5 3.5 0 0 1-1.5.3h-4.5v2.7l12.3-.4 11.4.4v-2.7h-5.2zm23.7-34.2h12.3l1-4.4-.3-.3-3.7.3h-9.3q.6-13.5 1.2-17.4l-1.1-.9a39.1 39.1 0 0 1-8 3.6v14.4a73 73 0 0 1-7.2 3.3v2a43.5 43.5 0 0 1 5.3-.4h1.8v19.6c0 .6 0 1.2-.1 1.7-.1 2.5-.2 4.9-.2 7a13 13 0 0 0 1.1 4.9 8.8 8.8 0 0 0 2 2.6 9.8 9.8 0 0 0 2.7 1.6 11.2 11.2 0 0 0 4 .6l3.6-.2a15.2 15.2 0 0 0 3.3-.9l4.3-3.6-.6-1.8a16.3 16.3 0 0 1-3 .8l-3.1.2a10.2 10.2 0 0 1-3.6-.9 4.9 4.9 0 0 1-1.7-1.6 6 6 0 0 1-.9-2.4 73.1 73.1 0 0 1-.1-8.4zm59.6-6.6c-2.8 0-6-.1-9.7-.4v2.7c3.3.3 5.2.6 5.7 1a1.6 1.6 0 0 1 .7 1.4 6 6 0 0 1-.2 1.3q-.6 2.2-4.3 11.5t-5.2 12.6l-2.5 5.6c-1.2-2.7-2.7-6.3-4.5-10.7l-3-7.4q-1.6-4.1-3.5-9.9a11.7 11.7 0 0 1-.8-3 1.7 1.7 0 0 1 1.2-1.7 33 33 0 0 1 5.6-.6v-2.8c-3.4.2-7 .4-10.7.4s-7.7-.1-11.6-.4v2.7a12.9 12.9 0 0 1 4.3.9 5.5 5.5 0 0 1 1.8 2.3c1.4 2.9 3.2 7.1 5.5 12.7l7.5 18.7c1.4 3.5 2.6 6.7 3.6 9.6-1.3 3.5-2.8 7-4.5 10.4a23.1 23.1 0 0 1-2.9 4.6 8 8 0 0 1-2.6 2 6.9 6.9 0 0 1-2.9.6 8 8 0 0 1-2.2-.2l-1.4-.7-1.5-1.2h-1.1l-2.4 7.3a13.8 13.8 0 0 0 2.8 1.2 11 11 0 0 0 2.8.3 12.7 12.7 0 0 0 10.5-5.3 48.4 48.4 0 0 0 4.6-8.8l10.9-25.6q7.3-15.9 9.9-21.4t4-6.4a6.7 6.7 0 0 1 3.7-1l.5-2.7c-2.5.3-5.3.4-8.1.4z" fill="#b31b1b"/></svg>